<?xml version="1.0" standalone="no"?>
<!DOCTYPE svg PUBLIC "-//W3C//DTD SVG 20010904//EN"
 "http://www.w3.org/TR/2001/REC-SVG-20010904/DTD/svg10.dtd">
<svg version="1.0" xmlns="http://www.w3.org/2000/svg"
 width="2048.000000pt" height="2048.000000pt" viewBox="0 0 2048.000000 2048.000000"
 preserveAspectRatio="xMidYMid meet">
<metadata>
Created by potrace 1.11, written by Peter Selinger 2001-2013
</metadata>
<g transform="translate(0.000000,2048.000000) scale(0.100000,-0.100000)"
fill="#000000" stroke="none">
<path d="M7934 19984 c4 -10 -1 -11 -18 -4 -12 4 -28 5 -35 1 -6 -4 -27 -7
-46 -6 -19 0 -35 -2 -35 -5 0 -3 -19 -5 -42 -5 -24 0 -47 -2 -53 -4 -10 -5
-13 -6 -85 -14 -25 -3 -66 -10 -90 -16 -24 -5 -48 -8 -52 -5 -4 3 -8 1 -8 -3
0 -5 -8 -9 -17 -10 -21 -1 -88 -11 -88 -13 0 -1 -8 -3 -17 -6 -10 -2 -26 -6
-35 -8 -10 -3 -18 -5 -18 -6 0 -2 -35 -10 -60 -13 -12 -2 -25 -6 -31 -10 -11
-6 -59 -18 -81 -19 -7 -1 -13 -6 -13 -11 0 -5 -7 -7 -15 -3 -8 3 -15 0 -15 -6
0 -6 -3 -9 -6 -5 -4 3 -22 0 -41 -8 -19 -8 -39 -12 -44 -9 -5 3 -9 2 -9 -3 0
-7 -27 -18 -85 -37 -10 -3 -59 -22 -85 -33 -8 -3 -18 -5 -22 -5 -5 1 -8 -2 -8
-8 0 -5 -3 -9 -7 -8 -5 1 -30 -8 -57 -20 -27 -12 -55 -22 -62 -22 -8 0 -14 -4
-14 -10 0 -5 -9 -10 -20 -10 -11 0 -20 -4 -20 -10 0 -5 -9 -10 -20 -10 -11 0
-20 -5 -20 -11 0 -6 -7 -9 -15 -6 -8 4 -17 1 -21 -5 -4 -5 -26 -19 -50 -30
-24 -10 -44 -24 -44 -29 0 -6 -6 -9 -12 -7 -7 3 -19 -1 -26 -9 -8 -7 -17 -11
-22 -8 -4 3 -11 -2 -14 -11 -3 -8 -10 -13 -15 -10 -5 3 -12 -1 -15 -10 -3 -8
-10 -13 -15 -10 -5 3 -14 -1 -21 -9 -7 -8 -19 -15 -26 -15 -8 0 -14 -4 -14
-10 0 -5 -11 -12 -25 -16 -14 -3 -25 -9 -25 -13 0 -3 -16 -15 -35 -25 -19 -11
-35 -23 -35 -28 0 -4 -4 -8 -9 -8 -14 0 -91 -52 -91 -62 0 -4 -6 -8 -14 -8 -8
0 -17 -7 -20 -16 -4 -9 -9 -14 -13 -11 -3 4 -17 -5 -30 -19 -12 -14 -23 -22
-23 -19 0 4 -6 0 -13 -7 -8 -7 -35 -31 -62 -53 -26 -22 -68 -58 -93 -80 -51
-45 -262 -254 -262 -259 0 -2 -19 -24 -42 -48 -24 -25 -65 -71 -93 -103 -27
-31 -58 -66 -67 -76 -10 -11 -18 -21 -18 -24 0 -3 -8 -13 -17 -23 -30 -31 -53
-62 -47 -62 2 0 -5 -11 -18 -24 -41 -41 -67 -79 -62 -88 3 -4 1 -8 -4 -8 -5 0
-21 -18 -36 -40 -14 -22 -24 -40 -22 -40 3 0 -6 -12 -19 -26 -14 -15 -22 -30
-19 -35 3 -5 0 -9 -6 -9 -6 0 -16 -12 -23 -27 -6 -16 -14 -30 -18 -33 -4 -3
-18 -27 -33 -55 -14 -27 -30 -57 -35 -65 -22 -35 -70 -140 -64 -140 3 0 -2 -9
-12 -20 -10 -11 -15 -20 -10 -20 4 0 2 -6 -4 -13 -6 -8 -8 -17 -4 -20 3 -4 -2
-9 -11 -13 -9 -3 -13 -10 -10 -15 3 -6 0 -16 -6 -24 -7 -8 -9 -15 -5 -15 4 0
2 -7 -5 -15 -6 -8 -9 -19 -5 -25 3 -5 0 -10 -8 -10 -8 0 -13 -9 -12 -22 1 -13
-2 -25 -6 -28 -4 -3 -9 -17 -11 -30 -2 -14 -7 -30 -10 -36 -4 -6 -9 -21 -12
-35 -3 -13 -9 -39 -15 -56 -5 -18 -7 -33 -3 -33 3 0 1 -5 -5 -11 -6 -6 -9 -18
-6 -25 3 -8 1 -14 -4 -14 -5 0 -9 -8 -10 -17 -1 -17 -5 -36 -17 -92 -3 -13 -8
-26 -11 -29 -2 -3 1 -12 8 -20 9 -13 9 -14 0 -8 -9 5 -13 -3 -14 -28 -2 -42
-3 -47 -9 -61 -3 -5 -5 -36 -5 -67 0 -32 -2 -58 -5 -58 -3 0 -5 -24 -5 -52 0
-29 -2 -65 -6 -80 -5 -19 -4 -28 4 -28 8 0 8 -3 2 -8 -14 -10 -17 -32 -5 -32
6 0 6 -10 -1 -27 -7 -18 -7 -29 0 -31 6 -2 6 -14 1 -33 -5 -17 -5 -29 0 -29 6
0 5 -12 -1 -27 -7 -18 -7 -29 0 -31 5 -2 6 -14 1 -32 -4 -16 -6 -31 -3 -34 3
-2 7 -62 9 -133 7 -198 8 -208 19 -215 6 -5 5 -8 -4 -8 -9 0 -10 -4 -4 -12 9
-12 14 -47 16 -105 1 -13 4 -23 7 -23 5 0 9 -38 11 -92 0 -10 4 -18 8 -18 4 0
7 -10 8 -22 2 -49 8 -88 13 -88 3 0 7 -17 8 -37 2 -20 7 -42 12 -48 6 -7 8
-14 5 -16 -2 -3 3 -29 11 -59 8 -30 17 -68 19 -83 2 -16 11 -42 19 -58 8 -16
10 -27 5 -24 -12 8 -12 3 6 -38 8 -19 11 -37 8 -41 -4 -3 0 -6 7 -6 7 0 11 -3
7 -6 -3 -3 -1 -18 5 -33 5 -14 12 -35 14 -46 8 -32 9 -37 29 -100 11 -33 22
-62 25 -65 4 -4 7 -16 13 -55 1 -5 5 -12 9 -15 4 -3 8 -17 10 -32 2 -14 10
-33 17 -42 7 -9 10 -16 6 -16 -4 0 -2 -7 5 -15 7 -8 9 -15 5 -15 -4 0 -2 -6 4
-13 6 -8 8 -17 4 -20 -3 -4 -2 -7 3 -7 5 0 10 -10 11 -22 1 -11 8 -25 15 -29
7 -5 10 -9 6 -9 -8 0 37 -117 54 -138 11 -13 11 -14 0 -8 -11 7 -11 4 0 -13 7
-12 16 -21 21 -21 4 0 5 -5 2 -10 -4 -6 3 -29 14 -50 11 -22 17 -40 13 -40 -4
0 -1 -4 6 -9 7 -4 14 -14 16 -22 1 -8 14 -40 29 -72 15 -32 27 -62 27 -67 0
-6 5 -10 11 -10 6 0 9 -6 6 -14 -3 -8 1 -17 8 -20 8 -3 12 -12 9 -21 -3 -8 -1
-15 6 -15 6 0 8 -4 5 -10 -3 -5 -2 -10 3 -10 8 0 21 -27 26 -53 0 -4 8 -12 16
-17 8 -5 11 -10 7 -10 -8 0 139 -289 152 -300 3 -3 7 -10 8 -17 2 -7 16 -34
33 -61 16 -27 30 -54 30 -61 0 -6 5 -11 10 -11 6 0 10 -9 10 -20 0 -10 6 -23
13 -27 6 -4 25 -33 41 -63 16 -30 35 -62 42 -71 8 -9 11 -19 8 -22 -4 -4 1 -9
10 -13 9 -3 13 -10 10 -15 -3 -5 0 -9 6 -9 6 0 9 -4 6 -9 -3 -5 1 -12 10 -15
8 -3 13 -10 10 -15 -3 -5 1 -14 9 -21 8 -7 15 -19 15 -26 0 -8 5 -14 10 -14 6
0 10 -7 10 -15 0 -8 5 -15 12 -15 6 0 9 -3 5 -6 -3 -3 -2 -11 4 -18 20 -24 59
-87 59 -96 0 -6 5 -10 10 -10 6 0 10 -7 10 -15 0 -8 5 -15 12 -15 6 0 9 -3 5
-6 -3 -3 3 -15 14 -27 10 -11 19 -26 19 -33 0 -7 6 -17 13 -21 7 -4 28 -34 46
-65 18 -32 37 -58 42 -58 5 0 9 -9 9 -21 0 -11 4 -18 9 -15 5 3 12 -5 15 -19
4 -14 11 -25 16 -25 6 0 10 -7 10 -15 0 -8 5 -15 11 -15 5 0 8 -4 5 -9 -4 -5
-2 -11 2 -13 5 -1 28 -32 52 -68 24 -36 52 -74 62 -84 10 -11 18 -26 18 -33 0
-7 5 -13 10 -13 6 0 10 -7 10 -15 0 -8 5 -15 10 -15 6 0 10 -7 10 -15 0 -8 3
-15 8 -15 4 0 18 -18 32 -40 14 -22 28 -40 33 -40 4 0 6 -4 3 -9 -3 -5 1 -11
9 -15 8 -3 15 -10 15 -16 0 -9 13 -27 45 -64 6 -6 30 -38 54 -71 25 -33 48
-61 53 -63 4 -2 8 -9 8 -16 0 -6 9 -18 20 -26 11 -8 20 -18 20 -23 0 -5 6 -14
13 -21 6 -7 21 -25 32 -41 11 -15 28 -35 38 -44 9 -8 17 -21 17 -27 0 -7 7
-15 16 -18 9 -4 14 -9 11 -12 -6 -6 2 -18 40 -58 12 -13 19 -27 16 -30 -4 -3
-1 -6 5 -6 7 0 12 -6 12 -14 0 -8 4 -16 8 -18 5 -2 22 -24 39 -49 26 -37 29
-46 15 -46 -9 0 -24 5 -32 13 -8 7 -19 13 -25 14 -5 2 -20 6 -32 11 -13 5 -35
14 -50 20 -16 6 -30 10 -32 9 -2 -1 -7 2 -10 7 -3 5 -35 24 -70 42 -35 18 -82
44 -105 57 -23 14 -49 27 -58 31 -10 3 -18 9 -18 14 0 5 -7 9 -15 9 -8 0 -15
5 -15 10 0 6 -3 9 -7 8 -11 -3 -173 104 -173 114 0 4 -5 8 -11 8 -6 0 -24 10
-39 23 -15 12 -43 33 -61 47 -18 14 -38 31 -45 38 -7 6 -15 12 -18 12 -3 0
-14 8 -24 18 -10 9 -37 33 -61 52 -58 47 -304 293 -366 365 -27 32 -56 64 -62
71 -7 7 -13 15 -13 19 0 4 -17 23 -37 44 -21 20 -39 40 -40 45 -1 4 -31 47
-67 96 -36 49 -66 92 -66 96 0 4 -10 15 -22 25 -11 11 -18 19 -14 19 4 0 2 6
-4 13 -15 18 -90 137 -90 143 0 3 -7 12 -15 21 -8 8 -13 19 -10 24 4 5 2 9 -3
9 -5 0 -15 14 -22 30 -7 17 -17 30 -23 30 -6 0 -8 3 -5 6 4 3 -5 22 -18 41
-13 20 -24 44 -24 54 0 9 -4 19 -9 21 -5 2 -20 26 -34 54 l-26 51 -185 -1
c-102 0 -186 -3 -186 -6 0 -3 -32 -5 -71 -5 -39 1 -73 -3 -76 -8 -2 -4 -11 -3
-19 4 -8 6 -14 7 -14 2 0 -5 -12 -9 -27 -8 -16 0 -31 -4 -35 -10 -5 -6 -8 -5
-8 3 0 7 -5 10 -10 7 -6 -4 -27 -8 -48 -10 -20 -3 -53 -7 -72 -10 -19 -4 -51
-8 -71 -9 -20 -2 -41 -6 -48 -10 -6 -4 -11 -1 -11 6 0 9 -2 10 -8 2 -4 -7 -20
-13 -37 -15 -16 -2 -35 -7 -40 -11 -6 -4 -20 -5 -30 -4 -11 2 -24 1 -30 -3 -5
-3 -18 -6 -27 -7 -10 -1 -19 -2 -20 -4 -2 -1 -12 -3 -22 -5 -65 -12 -292 -69
-296 -74 -5 -6 -29 -11 -60 -13 -8 -1 -23 -7 -34 -14 -10 -7 -25 -10 -32 -7
-8 3 -14 1 -14 -4 0 -9 -6 -11 -50 -15 -11 -1 -20 -6 -20 -10 0 -4 -8 -8 -18
-8 -10 0 -22 -3 -26 -7 -3 -4 -15 -8 -25 -10 -10 -1 -31 -8 -47 -14 -16 -7
-33 -13 -39 -15 -9 -2 -78 -30 -165 -67 -14 -6 -28 -11 -32 -11 -4 -1 -12 -6
-19 -13 -6 -6 -17 -9 -23 -7 -6 2 -21 -4 -33 -15 -11 -11 -23 -18 -26 -15 -2
2 -28 -8 -58 -22 -29 -15 -59 -27 -66 -27 -7 0 -11 -2 -9 -5 3 -2 -39 -27 -92
-54 -53 -27 -100 -54 -103 -60 -3 -5 -9 -9 -13 -9 -17 2 -24 -1 -46 -21 -14
-13 -27 -23 -30 -22 -3 1 -22 -10 -43 -23 -21 -13 -49 -29 -63 -35 -13 -6 -24
-15 -24 -20 0 -4 -6 -8 -14 -8 -8 0 -16 -3 -18 -7 -1 -5 -15 -15 -29 -23 -15
-8 -39 -25 -55 -37 -84 -64 -166 -123 -172 -123 -4 0 -14 -9 -22 -20 -8 -11
-18 -20 -23 -20 -5 0 -21 -12 -37 -27 -16 -16 -38 -35 -49 -44 -65 -50 -411
-383 -411 -396 0 -2 -12 -16 -27 -30 -16 -14 -27 -29 -25 -34 1 -5 -5 -9 -15
-9 -9 0 -14 -3 -10 -6 3 -3 -10 -21 -29 -40 -19 -19 -34 -38 -34 -42 0 -4 -16
-24 -35 -45 -19 -21 -34 -40 -34 -43 1 -3 -8 -17 -20 -30 -12 -13 -21 -29 -21
-34 0 -6 -4 -10 -10 -10 -5 0 -10 -7 -10 -15 0 -8 -4 -15 -9 -15 -5 0 -13 -9
-16 -20 -3 -11 -12 -26 -18 -33 -18 -19 -37 -50 -43 -69 -4 -10 -9 -18 -13
-18 -4 0 -21 -28 -37 -62 -16 -35 -35 -69 -41 -76 -7 -7 -16 -24 -19 -38 -3
-13 -10 -24 -15 -24 -5 0 -8 -3 -7 -7 2 -11 -25 -67 -37 -75 -5 -4 -7 -8 -2
-8 4 0 1 -13 -8 -30 -8 -16 -16 -33 -16 -37 -1 -5 -7 -16 -14 -27 -8 -10 -11
-25 -8 -34 4 -9 2 -13 -4 -9 -5 3 -16 -15 -23 -43 -8 -28 -18 -50 -22 -50 -5
0 -7 -4 -3 -9 3 -5 0 -13 -6 -16 -5 -4 -8 -13 -5 -20 2 -7 -2 -22 -10 -34 -8
-11 -12 -21 -8 -21 3 0 2 -6 -4 -13 -6 -7 -14 -28 -17 -47 -3 -19 -9 -39 -14
-45 -4 -5 -8 -23 -9 -39 -1 -17 -5 -32 -10 -35 -4 -3 -9 -17 -10 -31 -2 -14
-8 -30 -13 -36 -5 -6 -7 -18 -3 -27 3 -8 0 -18 -5 -22 -6 -3 -9 -10 -7 -14 3
-4 1 -23 -4 -42 -16 -60 -22 -93 -23 -136 -1 -24 -5 -43 -9 -43 -3 0 -5 -11
-3 -25 1 -14 -1 -25 -4 -25 -4 0 -6 -22 -6 -50 0 -27 -2 -50 -6 -50 -3 0 -6
-110 -6 -245 -1 -175 3 -245 11 -245 6 0 4 -5 -4 -10 -9 -6 -10 -10 -3 -10 8
0 11 -13 8 -40 -2 -22 -1 -40 3 -40 4 0 8 -13 8 -30 1 -20 -2 -27 -10 -23 -6
3 -2 -4 9 -16 15 -18 16 -24 6 -30 -9 -6 -10 -10 -2 -15 6 -4 9 -12 6 -17 -4
-5 0 -9 7 -9 9 0 9 -3 -2 -10 -8 -5 -10 -10 -4 -10 5 0 10 -10 11 -22 2 -45 7
-78 13 -78 3 0 7 -10 7 -22 1 -13 4 -34 7 -48 3 -14 8 -44 12 -67 4 -25 11
-40 17 -36 5 3 7 2 4 -4 -6 -9 6 -67 20 -103 3 -8 7 -19 8 -25 0 -5 4 -17 7
-25 17 -50 30 -87 32 -97 1 -7 5 -16 9 -19 4 -4 7 -18 7 -31 0 -12 5 -23 10
-23 6 0 9 -3 8 -7 -4 -14 55 -153 64 -153 5 0 7 -4 4 -9 -3 -5 5 -29 18 -54
14 -25 22 -48 19 -51 -4 -3 -1 -6 5 -6 7 0 12 -5 12 -11 0 -6 9 -24 21 -41 12
-16 19 -32 16 -35 -3 -3 3 -14 14 -26 10 -11 19 -27 19 -34 0 -7 5 -13 12 -13
6 0 8 -3 5 -7 -4 -3 0 -15 10 -25 9 -10 12 -18 7 -18 -5 0 -4 -4 2 -8 15 -10
74 -99 74 -111 0 -6 5 -11 10 -11 6 0 10 -7 10 -15 0 -8 5 -15 10 -15 6 0 10
-5 10 -11 0 -6 6 -16 13 -23 6 -8 19 -24 27 -36 8 -12 21 -29 28 -36 7 -8 10
-14 6 -14 -4 0 2 -8 12 -17 11 -10 27 -29 35 -43 17 -27 60 -79 97 -117 12
-13 22 -26 22 -28 0 -15 306 -325 321 -325 6 0 8 -3 6 -8 -3 -4 1 -13 9 -20 8
-7 14 -10 14 -6 0 4 13 -7 30 -24 16 -18 30 -29 30 -25 0 3 10 -6 23 -20 12
-15 26 -27 30 -27 13 0 45 -38 39 -46 -4 -4 -2 -4 4 -1 6 3 22 -5 37 -19 15
-14 27 -23 27 -20 0 5 37 -25 74 -59 23 -21 30 -25 47 -25 5 0 7 -4 4 -10 -3
-5 2 -10 12 -10 10 0 25 -9 33 -20 8 -11 18 -20 23 -20 5 0 38 -20 73 -46 35
-25 64 -42 64 -38 0 4 8 -3 19 -14 10 -12 21 -19 24 -16 3 4 13 0 21 -7 35
-32 46 -39 46 -32 0 4 4 4 8 -2 7 -10 27 -21 117 -69 22 -12 42 -24 43 -29 2
-4 8 -5 13 -1 5 3 9 0 9 -5 0 -6 3 -10 8 -9 4 1 27 -9 52 -22 25 -13 49 -23
53 -22 4 1 10 -4 13 -12 3 -8 12 -12 20 -9 8 3 14 0 14 -6 0 -6 3 -10 8 -9 4
1 25 -7 47 -17 22 -10 42 -19 45 -19 3 -1 15 -7 28 -14 12 -7 22 -10 22 -7 0
4 14 -4 32 -16 17 -13 28 -18 24 -11 -4 7 9 3 28 -9 20 -12 36 -17 36 -12 0 4
5 0 11 -10 6 -9 14 -15 19 -12 5 3 36 -5 69 -19 33 -13 62 -21 65 -18 3 3 6
-1 6 -8 0 -7 3 -11 6 -7 4 3 23 -1 43 -9 20 -8 36 -15 36 -14 0 1 7 -1 15 -4
8 -2 49 -14 90 -26 41 -12 85 -26 98 -31 13 -5 33 -9 46 -9 12 0 26 -3 30 -7
3 -4 12 -8 19 -9 22 -4 61 -12 104 -22 23 -5 44 -7 48 -4 3 3 5 0 5 -7 0 -6 6
-11 13 -10 6 2 32 -1 57 -6 25 -5 54 -10 65 -11 11 -1 31 -5 45 -8 36 -9 121
-20 153 -21 15 0 27 -3 27 -6 0 -4 16 -6 36 -5 20 1 37 -1 39 -4 2 -4 27 -6
54 -6 28 1 51 -1 51 -5 0 -3 15 -6 33 -6 114 -3 147 -7 147 -16 0 -5 7 -4 16
4 9 7 18 9 22 3 11 -14 45 -18 36 -3 -5 8 -3 10 6 4 13 -8 74 -13 202 -16 44
-1 75 -6 72 -11 -4 -5 3 -4 14 3 16 10 24 10 35 1 7 -7 17 -9 21 -5 11 12 276
10 276 -2 0 -7 3 -7 8 0 8 12 82 13 99 2 6 -4 14 -4 17 1 2 4 46 7 98 6 51 0
103 3 115 7 12 5 24 5 27 1 2 -4 40 -6 83 -5 175 7 279 6 290 0 6 -4 14 -4 17
1 3 6 534 8 601 3 6 -1 10 -14 11 -31 1 -16 -2 -28 -5 -26 -3 2 -6 -13 -6 -35
0 -21 4 -39 8 -39 5 0 5 -5 1 -12 -4 -6 -8 -75 -8 -152 -1 -78 -5 -147 -9
-153 -5 -7 -4 -13 2 -13 10 0 10 -18 -2 -37 -4 -6 -3 -14 1 -17 10 -6 10 -46
-1 -63 -4 -6 -3 -14 2 -17 10 -7 9 -25 -2 -42 -3 -6 -3 -14 0 -18 12 -11 13
-45 3 -51 -6 -4 -7 -12 -3 -18 12 -20 12 -37 0 -37 -8 0 -8 -3 -2 -8 12 -8 13
-22 2 -39 -4 -6 -3 -14 3 -18 7 -4 7 -12 0 -24 -5 -10 -7 -21 -4 -23 11 -12
12 -48 1 -48 -8 0 -8 -3 -2 -8 14 -9 16 -154 2 -145 -6 4 -7 1 -1 -8 13 -21
13 -339 0 -339 -8 0 -8 -3 0 -8 7 -4 11 -51 11 -122 1 -183 5 -250 15 -256 6
-4 5 -9 -2 -14 -9 -6 -9 -13 -1 -29 8 -15 9 -21 1 -21 -6 0 -8 -5 -4 -11 6
-10 9 -33 19 -149 1 -19 4 -35 5 -35 1 0 4 -22 6 -50 3 -27 7 -57 10 -65 4 -8
8 -28 10 -45 5 -44 12 -90 15 -90 1 0 3 -9 4 -20 4 -29 12 -65 24 -102 5 -17
7 -34 4 -37 -3 -3 -1 -11 4 -18 6 -7 10 -20 10 -28 0 -8 7 -38 16 -67 8 -28
13 -54 10 -57 -4 -3 -2 -6 4 -6 5 0 10 -6 11 -12 5 -41 11 -68 23 -89 7 -13
12 -26 12 -29 0 -5 0 -7 18 -65 7 -22 12 -42 12 -45 0 -3 5 -13 12 -24 8 -10
11 -25 8 -32 -3 -8 0 -14 6 -14 6 0 11 -8 11 -18 0 -10 8 -28 17 -41 9 -14 11
-21 5 -17 -8 5 -10 2 -6 -8 3 -9 10 -16 15 -16 5 0 8 -3 7 -8 -2 -4 5 -26 15
-50 9 -23 17 -45 18 -50 0 -4 5 -13 11 -19 6 -7 7 -13 2 -13 -5 0 -4 -4 1 -8
12 -9 62 -115 55 -117 -3 -1 3 -9 13 -19 9 -10 15 -21 12 -26 -3 -5 -2 -10 2
-12 5 -1 24 -34 43 -73 19 -38 38 -72 42 -75 4 -3 12 -17 17 -30 6 -14 23 -43
37 -65 13 -22 27 -48 31 -57 3 -10 9 -18 14 -18 5 0 9 -7 9 -15 0 -8 5 -15 10
-15 6 0 10 -6 10 -13 0 -7 9 -23 20 -35 11 -12 20 -25 20 -30 0 -5 7 -15 15
-22 9 -7 13 -15 11 -17 -4 -4 13 -28 42 -58 6 -8 12 -18 12 -24 0 -6 3 -11 8
-11 4 -1 23 -24 42 -52 19 -27 50 -67 67 -87 18 -20 33 -39 33 -43 0 -3 17
-24 38 -46 71 -76 112 -125 112 -134 0 -5 5 -6 10 -3 6 3 10 2 10 -3 0 -19
282 -292 302 -292 5 0 6 -4 3 -10 -3 -5 0 -10 7 -10 7 0 37 -23 67 -50 29 -28
59 -50 67 -50 8 0 14 -4 14 -8 0 -9 222 -172 235 -172 2 0 31 -18 64 -40 33
-22 65 -40 71 -40 5 0 10 -3 10 -7 0 -5 10 -13 23 -19 83 -40 152 -79 155 -86
2 -4 7 -8 12 -8 5 0 19 -4 32 -9 13 -5 27 -9 32 -9 5 0 12 -4 15 -9 9 -12 99
-53 116 -53 8 0 15 -4 15 -10 0 -5 7 -10 15 -10 16 0 19 -2 93 -38 23 -11 39
-16 36 -10 -4 5 5 2 19 -7 15 -9 31 -14 37 -10 5 3 10 1 10 -4 0 -6 8 -11 18
-11 10 0 22 -3 26 -7 3 -4 16 -8 28 -10 12 -2 27 -8 35 -14 7 -6 13 -9 13 -6
0 4 18 0 39 -8 22 -7 42 -11 45 -8 3 4 6 1 6 -6 0 -7 5 -9 10 -6 6 3 16 3 23
-2 12 -8 28 -12 60 -15 9 -1 17 -5 17 -9 0 -3 8 -6 18 -6 9 1 42 -4 72 -11 30
-6 66 -14 80 -16 14 -3 25 -5 25 -6 0 -2 35 -8 65 -12 14 -2 28 -7 32 -13 5
-6 8 -5 8 3 0 7 5 10 11 7 15 -10 67 -18 121 -19 27 -1 48 -3 48 -6 0 -7 77
-10 330 -10 233 -1 331 3 349 15 6 3 11 0 11 -7 0 -8 3 -9 8 -3 8 11 24 13
118 17 34 2 60 6 57 11 -2 4 8 7 24 8 15 0 35 2 43 4 8 1 40 8 71 14 30 6 68
14 84 17 15 3 35 9 44 13 9 5 26 7 39 6 12 -1 22 3 22 8 0 5 6 7 14 4 7 -3 17
-2 22 3 5 5 20 11 34 13 14 3 72 21 130 41 58 20 110 38 115 40 10 3 24 8 63
23 9 3 20 5 25 5 4 -1 7 3 7 8 0 5 3 9 8 8 8 -1 24 5 126 52 118 53 139 63
188 91 25 15 49 25 52 22 3 -4 6 -2 6 4 0 9 55 40 55 31 0 -1 7 3 15 10 25 22
121 82 131 82 5 0 12 7 15 15 4 8 12 15 20 15 8 0 25 10 40 23 14 12 28 20 31
19 3 -2 9 0 12 5 3 5 24 22 46 39 22 16 45 34 52 39 7 6 18 15 25 20 7 6 30
22 50 36 21 14 35 29 31 32 -3 4 -1 7 6 7 6 0 26 15 43 32 18 18 33 31 33 28
1 -5 37 26 95 83 16 15 33 27 39 27 6 0 11 6 11 14 0 8 9 17 19 21 11 3 23 15
26 26 4 10 9 18 13 16 4 -1 23 14 43 35 21 21 36 38 34 38 -2 0 24 27 57 60
33 33 57 60 53 60 -3 0 9 15 27 34 51 52 113 130 111 138 -2 5 5 8 14 8 9 0
14 3 10 6 -3 3 3 15 14 27 10 11 19 27 19 36 0 8 3 12 6 8 7 -6 54 57 54 73 0
5 6 13 13 17 13 9 57 68 57 78 0 3 9 15 20 27 10 12 17 25 14 30 -3 4 0 8 6 8
5 0 18 17 28 38 9 20 25 46 35 56 9 11 17 25 17 32 0 7 6 19 14 27 8 7 24 36
36 63 13 27 25 51 29 54 14 11 40 68 34 74 -3 3 -1 6 6 6 7 0 11 6 8 14 -3 8
1 17 10 20 9 4 13 9 9 13 -3 3 0 13 8 22 8 9 15 19 16 23 0 4 10 29 22 55 12
27 21 54 21 61 0 6 4 12 8 12 7 0 24 49 21 63 -1 4 3 7 8 7 6 0 10 7 10 15 0
8 5 24 10 35 6 11 15 29 20 40 6 12 8 25 5 30 -3 5 -1 11 5 15 5 3 10 15 10
26 0 10 5 19 12 19 6 0 9 3 5 6 -3 4 0 21 8 39 7 19 11 36 7 39 -3 3 -1 6 5 6
5 0 10 6 11 13 1 15 5 29 22 87 8 25 14 47 14 50 1 3 4 10 7 15 4 6 5 18 4 28
-2 9 1 17 7 17 6 0 8 7 5 15 -4 8 -2 17 4 20 5 4 7 10 4 15 -3 5 -1 12 5 15 8
5 8 11 0 20 -8 9 -7 14 3 18 8 3 13 18 12 36 -1 17 1 31 5 31 4 0 7 6 8 13 0
6 3 23 6 37 11 55 17 97 20 128 1 17 6 35 9 39 4 3 2 12 -4 20 -7 7 -7 13 -2
13 6 0 8 27 6 62 -2 35 -5 93 -6 130 -1 38 -5 68 -8 68 -10 0 -5 34 6 42 7 5
6 8 -1 8 -5 0 -11 19 -12 43 -5 86 -14 147 -23 147 -6 0 -5 8 1 20 8 15 8 20
-1 20 -6 0 -9 9 -6 20 3 11 2 20 -2 20 -4 0 -6 14 -5 30 1 17 -1 30 -5 30 -6
0 -11 34 -14 88 0 6 -4 12 -9 12 -5 0 -8 10 -7 23 2 12 -1 28 -5 36 -8 13 -14
43 -19 94 -1 9 -4 17 -7 17 -3 0 -7 9 -8 20 -4 42 -6 50 -11 50 -4 0 -8 12 -9
26 -1 14 -5 31 -9 37 -4 7 -9 20 -10 29 -5 35 -8 43 -15 49 -5 3 -9 17 -10 32
-1 15 -6 27 -10 27 -4 0 -8 10 -8 23 0 13 -4 27 -8 32 -5 6 -15 30 -22 55 -7
25 -22 62 -32 82 -10 21 -16 38 -12 38 3 0 -1 12 -11 26 -11 17 -12 23 -4 18
8 -4 4 5 -9 20 -12 16 -22 34 -22 40 0 12 -30 81 -50 118 -6 10 -10 25 -10 33
0 8 -4 15 -10 15 -5 0 -10 6 -10 14 0 8 -15 43 -34 79 -19 36 -32 68 -29 71 4
3 1 6 -5 6 -7 0 -12 7 -12 15 0 8 -5 15 -12 15 -6 0 -8 3 -5 6 7 7 -17 56 -41
86 -8 9 -11 21 -8 26 3 6 -1 12 -9 16 -8 3 -15 12 -15 19 0 8 -7 20 -15 27 -8
7 -15 20 -15 30 0 10 -7 21 -16 24 -9 4 -14 9 -11 13 4 3 -2 18 -13 33 -11 16
-20 31 -20 35 0 3 -12 25 -27 48 -42 64 -53 81 -60 97 -4 8 -13 21 -20 30 -7
8 -13 18 -13 23 0 4 -9 17 -20 29 -11 12 -20 27 -20 33 0 7 -9 20 -20 30 -11
10 -20 24 -20 30 0 7 -7 16 -16 19 -9 4 -14 9 -11 12 3 4 2 11 -4 18 -33 39
-79 106 -73 106 4 0 -3 8 -14 19 -12 10 -22 23 -22 30 0 6 -4 11 -10 11 -5 0
-10 6 -10 14 0 8 -4 16 -8 18 -5 2 -23 24 -41 51 -17 26 -42 57 -54 70 -13 12
-24 27 -25 32 -1 6 -7 17 -14 25 -7 9 -33 42 -58 75 -25 33 -49 66 -55 73 -5
7 -22 27 -37 43 -16 16 -28 32 -28 36 0 3 -8 13 -18 22 -11 9 -21 21 -23 27
-4 12 -74 96 -121 145 -15 16 -25 29 -21 29 3 0 -4 8 -15 19 -12 10 -22 23
-22 29 0 6 -9 14 -20 17 -11 3 -20 10 -20 15 0 5 -16 26 -35 47 -19 21 -48 53
-65 72 -16 18 -30 37 -30 42 0 5 -5 9 -11 9 -6 0 -17 7 -25 15 -9 8 -13 15
-10 15 3 0 -19 25 -49 55 -30 30 -55 59 -55 64 0 5 -9 13 -20 16 -11 3 -20 10
-20 15 0 5 -67 76 -149 159 -81 83 -146 153 -143 156 3 3 0 5 -7 5 -7 0 -39
27 -71 60 -32 33 -61 60 -63 60 -2 0 -45 39 -96 88 -88 84 -135 127 -230 209
-25 21 -59 52 -78 70 -18 17 -33 30 -33 28 0 -2 -15 10 -32 26 -18 17 -51 45
-72 62 -21 18 -54 47 -73 65 -19 17 -38 32 -42 32 -3 0 -13 9 -21 20 -8 11
-18 20 -23 20 -4 0 -21 13 -37 30 -16 16 -33 30 -38 30 -5 0 -18 10 -30 23
-38 39 -58 57 -67 57 -4 0 -21 13 -37 30 -15 17 -33 30 -38 30 -6 0 -10 3 -10
8 0 4 -27 28 -60 52 -33 25 -60 48 -60 53 0 4 -5 7 -11 7 -6 0 -24 14 -40 31
-16 17 -29 28 -29 24 0 -4 -9 3 -20 16 -10 13 -19 21 -20 17 0 -4 -10 3 -23
15 -13 12 -43 38 -67 57 -24 19 -56 46 -72 60 -51 46 -58 51 -58 45 0 -3 -16
9 -34 27 -19 18 -41 38 -48 43 -24 18 -102 82 -128 104 -59 52 -70 61 -75 61
-2 0 -15 10 -28 23 -35 33 -86 77 -91 77 -2 0 -30 24 -61 53 -31 28 -58 51
-60 50 -2 -1 -19 12 -38 30 -18 18 -55 51 -83 75 -95 83 -145 127 -193 172
-46 42 -118 105 -199 175 -20 17 -48 42 -64 57 -15 16 -30 28 -32 28 -5 0 -55
44 -142 126 -24 23 -44 40 -44 38 0 -1 -15 12 -34 29 -18 18 -66 61 -105 97
-40 36 -98 90 -130 120 -32 30 -81 77 -109 103 -29 26 -52 52 -52 57 0 6 -4 9
-8 8 -4 -2 -63 52 -129 120 -67 67 -127 122 -134 122 -7 0 -10 3 -6 6 3 4 -14
26 -39 49 -24 23 -44 48 -44 54 0 6 -3 11 -7 11 -16 0 -134 126 -126 134 3 3
1 6 -5 6 -10 0 -62 46 -62 55 0 2 -19 24 -42 49 -24 25 -56 62 -73 81 -16 20
-46 52 -65 73 -19 21 -50 57 -68 80 -58 71 -71 86 -90 107 -10 11 -34 40 -53
65 -18 25 -40 51 -47 59 -7 8 -21 26 -30 40 -9 14 -25 32 -34 39 -10 7 -18 17
-18 22 0 6 -6 18 -14 27 -67 81 -106 133 -106 137 0 3 -9 17 -21 30 -12 13
-22 28 -22 33 -1 4 -12 18 -26 31 -13 12 -20 22 -15 22 5 1 -1 9 -14 20 -13
10 -22 22 -21 25 0 4 -8 18 -20 31 -11 13 -21 27 -20 32 0 7 -21 37 -52 71 -8
9 -13 23 -11 29 2 7 -1 12 -7 12 -7 0 -16 11 -21 25 -5 14 -14 25 -20 25 -6 0
-8 5 -5 10 3 6 1 10 -5 10 -6 0 -8 5 -5 10 3 6 1 10 -4 10 -6 0 -11 7 -11 15
0 8 -4 15 -10 15 -5 0 -10 7 -10 15 0 8 -5 15 -12 15 -6 0 -8 3 -5 7 4 3 1 13
-5 21 -17 20 -35 52 -49 85 -6 15 -15 27 -20 27 -5 0 -9 9 -9 20 0 11 -5 20
-11 20 -5 0 -7 5 -4 10 3 6 2 10 -4 10 -10 0 -27 38 -23 53 1 4 -3 7 -8 7 -6
0 -10 7 -10 15 0 8 -5 15 -12 15 -6 0 -8 3 -5 6 4 4 -2 19 -13 34 -11 15 -17
30 -13 34 3 3 0 6 -7 6 -7 0 -10 3 -7 7 4 3 1 13 -7 22 -8 9 -16 25 -18 36 -1
11 -6 22 -9 25 -9 8 -49 96 -49 108 0 7 -4 12 -10 12 -5 0 -10 9 -10 19 0 11
-4 23 -10 26 -5 3 -10 17 -10 31 0 13 -3 24 -8 24 -4 0 -12 12 -18 28 -30 72
-39 98 -36 105 1 4 -3 7 -8 7 -6 0 -10 9 -10 19 0 11 -5 23 -11 26 -6 4 -8 13
-5 21 3 7 1 16 -5 19 -5 4 -7 11 -4 16 4 5 2 9 -3 9 -5 0 -15 21 -22 48 -7 26
-17 52 -21 58 -5 6 -6 14 -2 17 3 4 0 7 -7 7 -7 0 -11 3 -7 6 3 4 0 22 -8 40
-8 19 -11 34 -8 34 3 0 1 6 -5 13 -6 7 -13 26 -16 42 -2 17 -5 31 -6 33 -2 1
-3 5 -5 10 -1 4 -5 15 -9 24 -4 9 -4 22 0 29 5 8 3 9 -6 4 -9 -6 -12 -4 -8 6
3 8 0 26 -8 40 -7 13 -13 36 -14 50 0 14 -3 29 -7 33 -7 6 -11 24 -15 59 -1 9
-6 17 -10 17 -4 0 -8 5 -8 11 0 5 6 7 13 3 7 -5 6 -1 -3 10 -8 10 -15 28 -16
40 0 11 -4 31 -8 43 -10 32 -28 126 -29 151 0 6 -3 12 -6 12 -6 0 -12 47 -15
107 0 17 -5 29 -10 25 -5 -3 -7 5 -4 16 4 13 1 22 -5 22 -7 0 -5 5 3 10 11 7
11 10 2 10 -7 0 -12 8 -11 18 1 9 0 19 -1 22 -2 6 -8 43 -13 81 -2 14 -8 32
-12 39 -5 9 -4 11 3 6 9 -5 9 0 2 20 -6 15 -9 33 -6 41 3 7 2 13 -3 13 -5 0
-7 11 -6 25 2 14 0 27 -5 30 -4 2 -6 16 -5 30 2 14 0 27 -4 29 -4 3 -6 23 -5
45 1 23 -1 41 -5 41 -6 0 -12 54 -15 132 0 21 -3 38 -6 38 -3 0 -7 17 -8 38
-5 97 -10 157 -12 157 -3 0 -8 63 -11 143 -2 40 -7 76 -11 78 -4 3 -3 14 2 25
8 14 7 19 -1 19 -8 0 -8 4 1 15 7 9 8 15 2 15 -11 0 -11 18 1 37 4 6 4 14 -1
17 -6 4 -8 203 -2 281 0 6 -1 29 -3 53 -2 23 0 42 5 42 5 0 4 8 -1 19 -6 10
-8 21 -5 24 6 6 10 48 15 137 1 25 6 51 12 58 6 8 6 12 -2 12 -7 0 -9 4 -6 10
7 12 17 82 19 132 1 20 4 34 9 31 4 -2 7 6 8 19 0 13 2 30 4 38 2 8 6 29 9 45
10 53 24 110 26 110 1 0 4 8 14 50 2 11 9 32 14 46 6 15 8 30 5 33 -4 3 -2 6
4 6 6 0 14 7 17 16 3 8 2 12 -4 9 -5 -3 -2 11 7 32 8 21 20 49 26 63 6 14 11
27 12 30 1 3 7 18 13 33 7 16 12 31 12 35 0 4 20 46 45 93 24 48 41 89 38 93
-4 3 1 6 10 6 10 0 14 6 11 13 -3 8 2 20 11 27 8 7 15 19 15 26 0 8 5 14 12
14 6 0 9 3 6 6 -7 6 130 217 143 222 5 2 9 8 9 13 0 6 13 24 30 42 16 18 30
38 30 45 0 7 5 10 10 7 6 -3 10 -1 10 4 0 6 16 27 35 47 19 19 35 38 35 40 0
10 169 171 175 166 3 -3 5 3 5 13 0 10 3 16 6 12 3 -3 16 3 28 14 41 38 81 71
119 96 20 14 37 30 37 35 0 5 5 6 10 3 6 -3 10 -1 10 4 0 6 4 11 9 11 6 0 46
25 90 55 45 31 81 53 81 49 0 -3 7 2 16 10 8 9 22 16 30 16 8 0 14 3 14 8 0 4
26 20 58 36 31 17 69 38 85 49 15 10 27 16 27 14 0 -3 34 12 75 34 41 21 75
35 75 31 0 -4 4 -1 9 6 4 7 14 15 22 16 8 2 34 11 59 22 25 10 48 18 53 16 4
-1 7 3 7 8 0 6 9 10 19 10 11 0 22 4 26 9 3 5 19 12 36 16 17 4 42 13 57 21
15 8 33 14 40 14 6 0 12 4 12 8 0 4 8 8 18 9 14 0 101 29 152 50 8 3 19 5 24
4 4 -1 14 3 21 9 7 6 17 10 21 9 5 -1 22 3 37 9 16 7 34 12 42 12 8 0 16 4 20
9 3 6 14 8 25 6 11 -2 20 0 20 5 0 4 7 11 16 14 8 3 12 2 9 -4 -3 -5 10 -3 30
5 19 9 35 12 35 9 0 -4 6 -1 14 5 8 7 30 13 50 15 19 2 41 8 48 13 7 6 21 9
31 8 9 -2 17 1 17 7 0 6 6 8 14 5 8 -3 17 -3 20 1 4 3 12 7 19 8 7 2 25 6 41
9 16 3 36 10 45 14 9 5 26 7 39 6 12 -1 22 2 22 7 0 5 5 6 10 3 6 -3 10 -2 10
3 0 5 11 8 25 7 14 -2 25 1 25 5 0 5 9 7 20 5 11 -2 20 -1 20 3 0 4 10 9 23
10 25 2 61 9 65 12 1 2 11 4 22 5 11 1 21 3 23 5 2 2 32 9 62 15 11 2 31 7 45
10 14 4 34 8 45 10 11 1 49 10 84 20 35 9 66 14 69 11 3 -3 10 -2 16 3 6 5 37
14 69 21 31 6 57 16 57 21 0 7 -10 11 -22 8 -2 0 -19 7 -38 15 -19 8 -38 15
-42 15 -9 2 -18 5 -67 20 -18 6 -37 8 -42 5 -5 -3 -9 0 -9 6 0 6 -4 9 -9 5 -5
-3 -12 -1 -16 4 -3 6 -12 8 -20 4 -9 -3 -21 -1 -28 5 -6 5 -23 9 -37 8 -14 -1
-27 2 -30 6 -3 4 -27 8 -53 9 -26 2 -47 5 -47 8 0 6 -60 13 -127 15 -18 1 -33
3 -33 7 0 5 -53 11 -122 12 -21 1 -38 4 -38 7 0 3 -24 6 -53 7 -130 6 -199 12
-205 19 -4 4 -1 4 7 -1 8 -5 12 -4 8 1 -3 5 -20 11 -37 12 -23 2 -29 -1 -24
-10 6 -10 5 -10 -7 -1 -20 17 -291 16 -301 0 -6 -9 -8 -9 -8 1 0 6 -5 12 -11
12 -5 0 -8 -4 -5 -8 3 -5 -1 -9 -9 -9 -8 0 -12 3 -10 7 2 4 -3 7 -11 7 -8 0
-13 -6 -10 -13z"/>
<path d="M10430 19371 c-14 -3 -55 -6 -92 -6 -38 0 -68 -4 -68 -9 0 -5 -7 -3
-16 5 -9 8 -18 9 -22 3 -4 -5 -18 -10 -32 -10 -27 -1 -129 -14 -170 -21 -14
-2 -43 -6 -65 -8 -22 -2 -40 -4 -40 -5 0 -1 -10 -3 -22 -6 -13 -2 -33 -6 -45
-8 -13 -3 -23 -5 -23 -6 0 -1 -9 -3 -20 -5 -11 -2 -31 -6 -45 -9 -32 -7 -84
-19 -90 -21 -3 -1 -18 -5 -35 -9 -16 -4 -37 -10 -45 -13 -8 -3 -24 -8 -34 -10
-11 -2 -26 -9 -35 -16 -11 -9 -13 -9 -8 0 5 8 -2 7 -20 -2 -15 -8 -35 -15 -44
-15 -9 0 -19 -3 -23 -7 -4 -5 -11 -8 -14 -9 -4 0 -20 -6 -37 -13 -16 -7 -38
-13 -47 -14 -10 -1 -18 -5 -18 -9 0 -4 -7 -8 -16 -8 -9 0 -28 -6 -42 -14 -52
-26 -127 -60 -141 -62 -8 -2 -18 -9 -22 -16 -5 -7 -9 -9 -9 -4 0 5 -6 3 -13
-3 -8 -6 -17 -8 -20 -4 -4 3 -7 1 -7 -6 0 -7 -4 -10 -9 -6 -6 3 -14 -2 -19
-11 -5 -9 -12 -16 -15 -15 -4 0 -35 -13 -69 -29 -35 -17 -59 -30 -53 -30 5 0
-14 -12 -42 -27 -104 -57 -131 -73 -144 -85 -8 -7 -26 -19 -40 -26 -15 -8 -39
-26 -55 -40 -16 -15 -31 -26 -34 -24 -3 1 -13 -4 -22 -12 -9 -8 -29 -23 -45
-33 -15 -9 -32 -23 -36 -30 -4 -7 -14 -13 -22 -13 -7 0 -15 -4 -17 -8 -1 -5
-39 -37 -82 -73 -44 -35 -99 -83 -123 -106 -24 -24 -45 -43 -47 -43 -5 0 -233
-228 -289 -289 -20 -23 -34 -41 -31 -41 4 0 -4 -10 -17 -23 -13 -12 -36 -40
-51 -62 -15 -22 -39 -53 -53 -70 -13 -16 -28 -35 -33 -40 -5 -6 -17 -24 -28
-40 -10 -17 -21 -32 -24 -35 -11 -10 -137 -206 -143 -222 -3 -10 -11 -18 -17
-18 -6 0 -8 -4 -5 -10 3 -5 1 -10 -5 -10 -6 0 -8 -4 -5 -10 3 -5 2 -10 -2 -10
-9 0 -20 -19 -48 -82 -10 -21 -21 -35 -26 -32 -5 3 -8 2 -7 -3 4 -14 -13 -53
-23 -53 -5 0 -8 -3 -7 -7 1 -5 -17 -47 -41 -95 -23 -48 -42 -90 -41 -94 1 -4
-3 -10 -9 -14 -6 -3 -14 -17 -16 -30 -2 -13 -10 -27 -17 -32 -7 -4 -9 -8 -5
-8 4 0 2 -10 -5 -22 -7 -13 -11 -26 -10 -30 1 -5 -3 -8 -9 -8 -6 0 -9 -7 -5
-15 3 -8 1 -15 -5 -15 -6 0 -7 -4 -4 -10 3 -5 1 -10 -5 -10 -6 0 -8 -4 -5 -10
3 -5 1 -10 -5 -10 -6 0 -8 -5 -5 -10 4 -6 2 -16 -3 -23 -5 -7 -12 -25 -16 -40
-4 -15 -11 -25 -15 -22 -5 3 -7 -3 -4 -14 3 -10 0 -22 -6 -25 -5 -4 -8 -13 -4
-21 3 -8 0 -15 -7 -15 -7 0 -10 -7 -6 -15 3 -8 1 -15 -4 -15 -6 0 -9 -3 -8 -7
1 -5 -5 -30 -14 -58 -13 -43 -29 -98 -32 -115 -1 -3 -4 -9 -7 -15 -4 -5 -6
-22 -5 -37 1 -14 -3 -24 -8 -21 -5 4 -7 -1 -3 -10 3 -10 2 -17 -3 -17 -5 0 -9
-8 -8 -17 0 -10 -3 -31 -7 -48 -4 -16 -7 -38 -7 -47 0 -10 -4 -18 -9 -18 -6 0
-8 -4 -4 -9 3 -5 1 -13 -5 -16 -8 -5 -8 -11 0 -20 8 -10 8 -15 0 -20 -6 -4 -9
-13 -6 -21 3 -7 2 -15 -2 -18 -4 -2 -7 -21 -7 -40 1 -20 -3 -36 -9 -36 -6 0
-4 -5 4 -10 13 -8 12 -10 -4 -10 -15 0 -17 -3 -8 -12 8 -8 8 -17 1 -31 -8 -15
-8 -18 1 -12 9 5 10 2 3 -11 -8 -16 -10 -147 -3 -164 6 -14 4 -36 -5 -42 -6
-5 -6 -8 1 -8 6 0 10 -15 9 -36 -1 -19 1 -37 5 -39 4 -2 5 -22 3 -44 -2 -23 1
-41 5 -41 4 0 8 -15 9 -32 4 -77 8 -118 14 -118 3 0 6 -10 7 -22 2 -33 9 -76
22 -138 7 -30 13 -63 13 -72 1 -10 5 -18 10 -18 4 0 7 -6 6 -12 -1 -7 2 -31 6
-53 11 -50 10 -47 18 -65 15 -36 34 -129 28 -136 -3 -4 0 -4 7 0 8 5 12 -1 12
-19 0 -14 4 -33 9 -43 7 -14 33 -93 37 -112 0 -3 3 -12 6 -20 4 -8 9 -24 14
-35 4 -11 8 -22 8 -25 1 -3 5 -11 9 -17 5 -7 5 -17 2 -23 -3 -5 -1 -10 4 -10
6 0 11 -8 11 -18 0 -10 5 -23 10 -28 6 -6 12 -20 15 -32 4 -24 18 -57 86 -200
27 -57 49 -107 49 -112 0 -6 4 -10 10 -10 5 0 7 -6 4 -14 -3 -7 2 -16 11 -20
9 -3 14 -10 11 -15 -4 -5 0 -15 6 -23 7 -7 31 -50 53 -95 22 -46 43 -83 48
-83 4 0 5 -4 2 -10 -3 -5 -1 -10 4 -10 6 0 11 -6 11 -14 0 -7 9 -25 20 -39 11
-14 20 -32 20 -40 0 -8 7 -17 15 -21 8 -3 15 -9 14 -13 -2 -15 13 -53 22 -53
5 0 9 -7 9 -15 0 -8 5 -15 10 -15 6 0 10 -7 10 -15 0 -8 5 -15 11 -15 5 0 7
-4 4 -10 -3 -5 -1 -10 4 -10 6 0 11 -6 11 -13 0 -7 9 -23 19 -34 11 -12 18
-23 16 -25 -2 -2 7 -17 20 -32 13 -16 27 -38 31 -50 4 -11 16 -29 26 -38 11
-9 20 -20 21 -25 2 -17 60 -103 69 -103 5 0 6 -4 3 -10 -3 -5 -1 -10 5 -10 6
0 8 -4 5 -10 -3 -5 -1 -10 4 -10 6 0 11 -7 11 -16 0 -8 5 -12 10 -9 6 3 10 0
10 -8 0 -8 9 -22 20 -32 11 -10 20 -24 20 -32 0 -7 4 -13 8 -13 5 0 18 -18 31
-40 12 -22 26 -40 32 -40 5 0 9 -4 9 -10 0 -10 20 -37 53 -72 9 -10 17 -21 16
-24 -1 -5 48 -67 79 -100 7 -8 10 -14 6 -14 -4 0 3 -9 16 -20 13 -11 19 -20
14 -20 -5 0 2 -7 14 -16 12 -8 20 -20 17 -25 -4 -5 1 -9 9 -9 9 0 16 -3 16 -7
0 -7 15 -26 68 -89 9 -11 33 -40 52 -63 41 -50 113 -132 153 -172 15 -16 27
-30 27 -33 0 -2 24 -29 53 -59 28 -30 68 -72 87 -94 19 -21 46 -46 60 -56 13
-9 21 -17 16 -17 -12 0 531 -529 564 -551 8 -5 11 -9 7 -9 -4 0 -2 -6 5 -14 7
-8 16 -12 21 -9 4 2 7 -4 7 -13 0 -10 2 -15 6 -12 3 3 34 -22 70 -56 113 -105
130 -121 152 -135 11 -8 19 -18 16 -23 -3 -4 1 -8 8 -8 8 0 21 -8 29 -17 9
-10 40 -38 69 -63 30 -25 64 -54 76 -65 12 -11 40 -34 61 -52 21 -17 49 -41
63 -53 14 -12 42 -36 64 -53 95 -78 124 -105 118 -113 -4 -4 -2 -4 4 -1 5 3
23 -5 40 -19 16 -14 39 -34 51 -44 12 -10 24 -16 27 -13 3 4 6 -1 6 -10 0 -9
4 -17 8 -17 9 0 44 -26 77 -57 13 -13 28 -23 34 -23 5 0 11 -3 13 -7 2 -5 30
-30 63 -58 33 -27 63 -54 67 -60 4 -5 8 -6 8 -1 0 5 8 0 18 -10 9 -11 37 -35
62 -54 74 -57 82 -64 98 -82 9 -9 19 -15 24 -12 4 3 8 1 8 -4 0 -5 27 -30 60
-56 33 -26 65 -52 72 -59 7 -7 33 -28 58 -48 25 -20 56 -46 70 -58 14 -11 40
-33 58 -48 19 -15 41 -36 50 -45 9 -10 21 -18 27 -18 5 0 29 -20 53 -45 23
-24 45 -44 48 -44 3 0 25 -17 48 -38 24 -21 72 -63 107 -93 35 -30 74 -65 87
-77 14 -13 29 -23 33 -23 5 0 9 -7 9 -15 0 -8 5 -15 10 -15 6 0 26 -15 44 -32
19 -18 45 -42 60 -53 14 -11 25 -26 26 -34 0 -8 3 -12 6 -9 3 4 28 -16 56 -43
28 -27 63 -57 79 -66 16 -10 32 -25 35 -35 5 -17 17 -23 39 -18 6 1 7 -1 3 -5
-6 -6 10 -23 69 -70 7 -5 36 -31 64 -57 29 -27 56 -48 61 -48 5 0 6 -4 3 -10
-3 -5 0 -10 7 -10 7 0 43 -28 80 -63 36 -34 99 -91 138 -127 88 -81 192 -185
290 -289 41 -45 134 -142 205 -216 72 -74 155 -161 185 -194 30 -33 83 -90
117 -126 34 -36 60 -65 56 -65 -3 0 7 -13 23 -29 16 -15 40 -42 54 -58 51 -62
116 -137 133 -155 9 -10 17 -22 17 -27 0 -5 4 -11 8 -13 5 -1 42 -46 83 -98
41 -52 77 -96 82 -98 4 -2 7 -8 7 -14 0 -5 6 -15 13 -22 6 -7 21 -25 32 -41
11 -15 30 -40 43 -55 12 -15 22 -32 22 -38 0 -5 7 -12 15 -16 8 -3 15 -12 15
-20 0 -8 4 -16 8 -18 7 -2 93 -123 127 -177 6 -8 22 -34 36 -56 15 -22 27 -43
28 -48 0 -4 10 -17 21 -29 11 -12 20 -28 20 -35 0 -7 4 -13 9 -13 5 0 12 -8
15 -17 9 -25 38 -77 46 -83 3 -3 22 -34 41 -70 19 -36 37 -67 40 -70 7 -6 39
-66 41 -77 0 -5 11 -24 22 -43 12 -19 33 -57 46 -85 14 -27 28 -52 33 -53 4
-2 5 -8 1 -13 -3 -5 0 -9 6 -9 7 0 10 -6 7 -14 -3 -8 -1 -16 4 -18 6 -2 11
-10 13 -18 4 -21 40 -94 48 -98 4 -2 4 -10 1 -18 -3 -8 0 -14 6 -14 6 0 10 -3
9 -8 -3 -8 25 -79 48 -123 8 -15 15 -35 17 -45 4 -18 7 -27 40 -107 9 -20 16
-39 17 -42 1 -8 11 -38 23 -70 12 -32 17 -52 19 -72 1 -7 6 -13 11 -13 5 0 7
-7 4 -15 -4 -8 -2 -17 3 -20 6 -4 10 -17 10 -31 0 -13 4 -24 8 -24 5 0 9 -6
10 -12 0 -7 3 -22 6 -33 22 -78 27 -102 28 -112 1 -7 5 -13 9 -13 4 0 6 -11 4
-25 -1 -14 2 -25 6 -25 5 0 9 -13 9 -28 0 -16 3 -32 8 -36 4 -4 7 -11 7 -14 1
-26 30 -139 38 -150 5 -7 7 -15 4 -18 -3 -3 -1 -20 4 -37 10 -33 20 -90 22
-119 1 -10 4 -18 7 -18 4 0 7 -6 7 -12 0 -7 4 -33 8 -58 4 -25 9 -61 10 -80 2
-19 4 -37 5 -40 2 -3 2 -8 1 -12 0 -5 3 -8 7 -8 5 0 8 -12 7 -28 -1 -15 1 -31
4 -37 3 -5 7 -21 8 -35 1 -14 5 -47 8 -75 4 -27 8 -57 9 -65 1 -8 6 -21 10
-29 7 -10 5 -12 -3 -6 -10 6 -11 3 -2 -12 5 -11 10 -28 9 -39 -1 -38 21 -204
28 -216 3 -5 0 -8 -6 -8 -7 0 -8 -6 -2 -17 5 -10 8 -31 7 -48 -1 -16 3 -38 8
-49 7 -14 6 -16 -4 -11 -8 6 -10 4 -3 -6 8 -13 12 -59 16 -194 2 -33 7 -63 13
-67 6 -5 6 -8 -2 -8 -9 0 -10 -7 -4 -23 5 -13 5 -30 1 -37 -5 -8 -6 -19 -3
-24 10 -16 11 -59 1 -78 -5 -10 -4 -19 3 -23 6 -4 8 -14 5 -22 -4 -9 -2 -21 4
-28 6 -7 7 -16 2 -19 -4 -3 -7 -48 -6 -100 1 -67 -1 -96 -9 -96 -8 0 -9 -3 -2
-8 11 -7 15 -152 4 -152 -4 0 -7 -12 -6 -27 0 -16 -3 -55 -7 -88 -4 -33 -8
-75 -9 -92 -1 -18 -4 -33 -7 -33 -3 0 -6 -10 -7 -22 -1 -33 -14 -101 -21 -113
-4 -5 -7 -19 -7 -30 0 -11 -4 -26 -8 -33 -5 -6 -5 -12 -1 -12 3 0 0 -8 -7 -17
-12 -15 -12 -16 1 -8 12 7 13 6 3 -7 -7 -8 -10 -18 -6 -21 3 -4 1 -7 -5 -7 -7
0 -11 -3 -10 -7 3 -15 -15 -88 -24 -100 -5 -7 -7 -17 -4 -22 4 -5 2 -12 -4
-16 -5 -3 -10 -15 -10 -26 0 -10 -5 -19 -11 -19 -5 0 -8 -4 -4 -10 3 -5 1 -17
-4 -27 -5 -10 -13 -27 -17 -38 -10 -28 -9 -26 -25 -65 -7 -19 -12 -38 -11 -42
1 -5 -2 -8 -7 -8 -8 0 -17 -21 -19 -44 0 -5 -5 -12 -10 -15 -6 -3 -12 -15 -14
-26 -1 -11 -10 -25 -18 -32 -8 -7 -11 -13 -7 -13 5 0 -1 -13 -13 -30 -12 -16
-18 -30 -13 -30 4 0 4 -4 -2 -8 -13 -9 -34 -42 -41 -64 -4 -10 -11 -18 -16
-18 -5 0 -7 -4 -4 -9 3 -5 -6 -21 -21 -37 -15 -16 -26 -31 -25 -34 1 -3 -5
-13 -13 -23 -8 -9 -11 -17 -7 -17 4 0 2 -4 -4 -8 -5 -4 -25 -28 -44 -55 -18
-26 -36 -47 -39 -47 -4 0 -15 -16 -25 -35 -10 -19 -23 -32 -27 -29 -5 3 -9 0
-9 -7 0 -6 -11 -22 -25 -35 -14 -13 -25 -28 -25 -34 0 -6 -4 -8 -10 -5 -5 3
-10 1 -10 -5 0 -6 -25 -34 -55 -64 -30 -29 -55 -52 -55 -50 0 2 -15 -11 -33
-29 -48 -46 -127 -115 -135 -119 -4 -1 -16 -10 -27 -20 -68 -58 -81 -68 -88
-68 -5 0 -15 -6 -22 -12 -26 -23 -39 -33 -110 -79 -101 -65 -134 -85 -192
-115 -29 -15 -53 -31 -53 -36 0 -5 -5 -6 -10 -3 -6 3 -17 -1 -26 -9 -8 -9 -22
-16 -30 -16 -8 0 -14 -4 -14 -10 0 -5 -3 -9 -7 -8 -12 2 -93 -33 -93 -41 0 -4
-6 -8 -12 -8 -7 -1 -78 -28 -158 -61 -134 -56 -167 -68 -180 -70 -3 0 -18 -7
-34 -16 -16 -8 -33 -13 -38 -10 -4 3 -8 1 -8 -4 0 -5 -7 -9 -15 -10 -8 -1 -22
-3 -30 -4 -8 -1 -15 -5 -15 -10 0 -4 -3 -7 -7 -6 -10 2 -64 -13 -78 -21 -5 -3
-19 -7 -29 -8 -11 -2 -26 -8 -33 -15 -7 -6 -16 -8 -20 -5 -3 4 -14 2 -25 -4
-11 -6 -32 -13 -46 -15 -15 -3 -32 -10 -39 -16 -7 -6 -13 -8 -13 -5 0 3 -21 0
-47 -8 -25 -8 -50 -12 -55 -9 -4 3 -8 1 -8 -3 0 -8 -89 -34 -122 -36 -10 -1
-18 -6 -18 -11 0 -5 -3 -7 -6 -4 -3 4 -20 2 -37 -4 -18 -5 -41 -11 -52 -12
-11 -1 -26 -5 -32 -9 -7 -5 -13 -5 -13 -1 0 3 -7 1 -15 -6 -8 -7 -15 -9 -15
-4 0 5 -5 2 -10 -6 -7 -11 -10 -11 -10 -2 0 9 -5 10 -19 2 -11 -5 -33 -11 -48
-13 -16 -2 -34 -6 -40 -10 -6 -4 -23 -8 -37 -9 -14 -1 -26 -5 -26 -8 0 -6 -10
-7 -77 -13 -18 -1 -33 -5 -33 -9 0 -5 -10 -8 -23 -8 -13 0 -27 -3 -30 -7 -4
-3 -19 -8 -34 -10 -46 -5 -57 -8 -70 -16 -7 -5 -13 -6 -13 -3 0 3 -19 -1 -43
-8 -24 -7 -51 -12 -60 -10 -9 1 -17 -1 -17 -6 0 -5 -11 -7 -25 -5 -14 1 -25
-2 -25 -7 0 -6 -8 -7 -17 -3 -15 5 -16 4 -5 -7 7 -7 30 -13 51 -14 21 0 43 -4
50 -8 14 -9 57 -18 91 -20 14 0 27 -4 30 -8 3 -4 20 -8 38 -10 18 -1 32 -5 32
-8 0 -3 8 -6 18 -6 28 -1 104 -13 142 -22 20 -5 43 -8 53 -6 9 1 17 -2 17 -7
0 -5 14 -7 30 -5 17 2 30 0 30 -4 0 -3 10 -6 23 -5 12 1 27 -2 34 -7 7 -6 14
-5 18 2 5 8 11 8 20 0 8 -7 19 -9 24 -6 5 4 12 3 15 -2 2 -4 21 -7 40 -7 20 1
36 -1 36 -4 0 -10 104 -14 380 -15 278 0 338 3 347 17 2 4 11 3 19 -4 11 -9
14 -8 14 2 0 11 2 11 10 -1 5 -8 10 -10 10 -5 0 6 17 11 38 12 20 1 53 5 72 8
19 3 49 8 65 10 17 2 48 6 70 10 22 3 46 6 53 7 6 1 12 4 12 7 0 3 12 7 28 8
59 3 92 8 92 15 0 4 8 6 18 6 9 -1 35 4 57 10 22 6 43 12 48 12 4 0 23 6 42
14 23 10 35 11 35 4 0 -6 9 -3 21 8 12 10 23 18 25 17 2 -2 5 -3 7 -2 1 0 15
3 32 5 16 3 35 9 41 15 6 5 14 6 17 2 4 -3 7 -2 7 3 0 5 12 11 26 12 15 1 34
8 42 15 8 6 16 11 16 9 1 -2 14 1 29 7 16 6 35 11 43 11 8 0 14 5 14 11 0 5 4
8 8 5 8 -5 16 -2 125 48 32 14 64 26 71 26 8 0 16 3 18 8 3 8 214 112 224 111
4 0 10 3 13 8 3 5 26 20 51 34 25 13 53 32 64 41 10 10 23 15 28 12 4 -3 8 -1
8 3 0 5 17 17 37 28 20 11 45 29 55 39 10 11 18 16 18 12 0 -7 18 6 77 54 7 6
15 10 18 10 4 0 12 6 19 13 7 6 27 23 45 37 18 14 38 30 44 36 7 6 34 27 60
47 27 20 45 37 40 37 -4 0 3 8 17 18 49 33 350 328 343 335 -2 3 5 8 16 12 12
3 21 10 21 15 0 4 23 32 50 61 27 29 50 56 50 60 0 4 3 9 8 11 4 2 25 26 47
53 21 28 44 55 50 60 6 6 28 35 50 65 22 30 45 61 52 68 7 7 13 18 13 23 0 5
8 18 18 28 34 38 41 49 35 55 -4 3 -2 6 4 6 6 0 16 13 23 30 7 16 16 30 21 30
5 0 9 4 9 9 0 4 23 47 50 95 28 48 50 91 50 96 0 6 5 10 11 10 5 0 7 4 4 10
-3 5 -1 10 6 10 7 0 9 3 6 7 -4 3 -2 12 4 20 6 7 8 13 3 13 -5 0 -4 4 1 8 14
10 75 144 75 165 0 9 5 17 10 17 6 0 10 8 10 18 0 10 6 24 13 31 7 9 8 12 0 7
-6 -3 -2 12 8 34 11 22 17 45 14 50 -3 6 -1 10 5 10 6 0 8 5 5 10 -3 6 -2 10
4 10 5 0 8 9 6 20 -2 11 1 20 7 20 6 0 8 9 5 20 -3 11 -1 20 5 20 6 0 8 11 6
25 -3 14 -1 25 4 25 6 0 8 6 5 14 -3 8 -3 17 1 20 3 4 7 12 8 19 8 39 14 58
19 67 3 6 1 10 -6 10 -8 0 -8 4 1 15 7 8 9 15 5 15 -4 0 -3 6 2 13 5 6 8 23 7
37 -1 14 1 30 4 35 10 15 8 39 -3 47 -6 5 -5 8 3 8 8 0 12 15 12 43 0 24 5 48
11 54 6 6 7 13 1 17 -5 3 -6 25 -3 48 4 24 7 105 6 180 0 76 4 138 9 138 5 0
4 6 -1 13 -5 6 -8 38 -8 69 1 31 -2 55 -6 52 -4 -2 -4 9 1 26 5 17 5 32 0 35
-5 3 -5 16 0 31 7 18 7 23 -2 18 -8 -5 -9 0 -6 14 4 12 1 22 -4 22 -7 0 -6 5
1 13 6 8 8 17 4 20 -3 4 -7 28 -9 54 -1 27 -3 48 -4 48 -1 0 -3 14 -5 30 -5
48 -13 84 -21 96 -4 8 -3 9 4 5 9 -5 9 0 2 19 -5 14 -11 46 -12 70 -2 25 -5
45 -8 45 -3 0 -7 10 -8 23 -2 24 -10 62 -12 62 -1 0 -3 12 -6 28 -10 62 -12
73 -17 87 -4 8 -8 29 -9 45 -2 17 -6 32 -10 35 -4 3 -8 20 -10 38 -1 18 -5 32
-8 32 -3 0 -7 10 -8 22 -1 13 -3 32 -5 43 -1 11 -7 23 -13 27 -6 4 -10 19 -9
33 2 14 -1 25 -6 25 -6 0 -7 5 -4 10 3 6 1 10 -5 10 -6 0 -8 5 -5 11 4 5 2 22
-3 37 -6 15 -14 36 -18 47 -4 11 -6 26 -5 33 1 6 -3 12 -9 12 -5 0 -9 3 -8 8
4 18 -15 82 -25 82 -6 0 -8 3 -4 6 3 4 0 21 -8 39 -7 19 -11 36 -7 39 3 3 0 6
-6 6 -7 0 -11 3 -10 8 3 9 -49 159 -67 193 -8 14 -12 29 -8 33 3 3 0 6 -7 6
-7 0 -11 3 -7 6 3 3 -4 27 -15 52 -28 66 -40 97 -36 97 1 0 -8 17 -20 38 -13
20 -21 37 -18 37 4 0 0 14 -9 30 -9 17 -12 30 -8 30 5 0 3 4 -3 8 -14 8 -54
90 -54 109 0 7 -5 13 -12 13 -6 0 -9 3 -5 6 3 3 -6 27 -19 54 -13 26 -24 53
-24 59 0 6 -4 11 -10 11 -5 0 -9 3 -8 8 3 10 -64 146 -74 150 -4 2 -8 12 -8
22 0 10 -4 22 -10 25 -5 3 -10 15 -10 26 0 11 -6 22 -14 25 -8 3 -17 16 -20
30 -4 13 -20 45 -36 71 -17 26 -30 53 -30 60 0 7 -4 13 -10 13 -5 0 -10 9 -10
21 0 11 -4 17 -10 14 -5 -3 -10 3 -10 14 0 12 -4 21 -10 21 -5 0 -10 7 -10 15
0 8 -4 15 -10 15 -5 0 -10 9 -10 20 0 11 -4 20 -9 20 -5 0 -11 8 -14 18 -4 9
-20 40 -36 67 -17 28 -38 65 -47 83 -9 17 -20 32 -25 32 -5 0 -8 3 -7 8 1 4
-5 18 -13 32 -9 14 -24 39 -35 55 -10 17 -17 33 -16 37 1 4 -7 12 -18 18 -11
6 -20 20 -20 30 0 11 -4 20 -10 20 -5 0 -10 5 -10 10 0 6 -18 38 -40 71 -22
33 -40 65 -40 70 0 5 -4 9 -9 9 -5 0 -14 14 -21 30 -7 17 -16 30 -21 30 -5 0
-9 6 -9 14 0 8 -6 21 -13 28 -20 21 -52 72 -49 81 1 4 -2 7 -7 7 -5 0 -21 20
-35 45 -15 25 -31 45 -36 45 -6 0 -9 3 -8 7 3 11 -35 73 -44 73 -4 0 -8 6 -8
14 0 8 -3 16 -7 18 -11 4 -53 65 -53 77 0 5 -7 11 -15 15 -8 3 -15 10 -15 16
0 6 -5 16 -10 23 -40 47 -54 65 -68 89 -9 16 -20 28 -24 28 -4 0 -8 5 -8 11 0
6 -12 26 -27 45 -53 64 -73 92 -73 104 0 6 -4 9 -8 6 -4 -3 -19 13 -32 35 -14
21 -28 39 -32 39 -5 0 -8 5 -8 11 0 5 -13 24 -30 42 -16 18 -30 35 -30 38 0 4
-12 20 -27 37 -16 16 -35 40 -43 52 -8 12 -32 40 -52 63 -21 23 -38 45 -38 48
0 3 16 22 36 42 l36 36 92 -47 c50 -25 93 -49 96 -52 3 -4 25 -17 50 -31 25
-13 49 -28 55 -32 23 -18 111 -71 118 -72 4 0 11 -5 15 -11 4 -5 23 -20 42
-32 20 -11 47 -31 60 -42 14 -12 37 -29 53 -38 15 -9 27 -20 27 -24 0 -4 4 -8
10 -8 5 0 19 -8 31 -17 38 -32 56 -48 99 -83 24 -19 53 -45 65 -57 13 -12 26
-19 29 -16 3 4 6 -1 6 -10 0 -10 7 -17 16 -17 8 0 12 -4 9 -10 -3 -6 -1 -10 5
-10 6 0 43 -31 82 -70 39 -38 76 -70 81 -70 6 0 8 -3 5 -6 -3 -3 23 -35 58
-70 35 -36 64 -70 64 -75 0 -6 5 -7 10 -4 6 3 10 1 10 -5 0 -6 6 -17 13 -24 6
-7 32 -37 57 -66 25 -29 51 -59 58 -66 6 -7 12 -16 12 -20 0 -4 7 -14 15 -23
30 -32 65 -79 65 -88 0 -5 9 -15 19 -23 11 -7 18 -17 15 -21 -2 -4 5 -14 16
-22 11 -7 17 -17 13 -20 -3 -4 -1 -7 5 -7 7 0 12 -7 12 -15 0 -8 5 -15 10 -15
6 0 10 -7 10 -15 0 -8 5 -15 10 -15 6 0 10 -7 10 -15 0 -8 5 -15 10 -15 6 0
10 -5 10 -10 0 -6 8 -23 19 -38 36 -54 55 -87 53 -94 -1 -5 2 -8 6 -8 10 0 37
-50 34 -62 -1 -5 2 -8 8 -8 5 0 10 -7 10 -15 0 -8 5 -15 10 -15 6 0 10 -3 9
-7 -2 -15 13 -53 21 -53 7 0 16 -21 25 -57 6 -23 40 -50 63 -48 12 1 22 -3 22
-8 0 -6 5 -6 13 0 14 11 27 11 45 0 7 -5 12 -4 12 3 0 6 5 8 12 4 16 -10 48
-13 48 -4 0 8 37 6 46 -3 4 -4 13 -2 21 4 9 8 13 8 13 0 0 -7 8 -8 23 -3 12 4
55 8 95 7 39 0 72 4 72 9 0 4 6 3 14 -3 8 -7 17 -8 19 -4 3 5 26 8 51 8 25 -1
46 1 46 4 0 3 21 7 48 8 71 3 135 9 152 16 8 3 22 6 30 6 16 0 55 6 110 15 61
11 65 11 75 17 6 2 26 5 45 4 19 0 37 3 40 7 3 4 19 9 35 12 17 2 30 5 30 6 0
1 8 3 19 5 10 2 41 9 70 16 28 7 57 12 64 11 6 -2 12 2 12 8 0 5 5 10 11 10 5
0 7 -5 3 -12 -4 -6 3 -4 17 5 13 9 34 17 46 17 13 0 23 5 23 11 0 5 4 8 8 5 4
-2 34 4 66 15 32 10 63 16 69 12 5 -3 7 -1 4 4 -6 10 55 29 76 25 4 -1 10 5
13 13 3 8 9 13 13 10 5 -2 32 5 62 16 70 26 78 28 84 28 3 0 18 7 33 16 15 8
41 20 57 27 17 6 32 12 35 14 3 1 15 5 28 9 12 4 22 11 22 15 0 4 6 7 13 7 10
-2 60 20 185 82 17 8 32 19 32 23 0 5 9 8 19 8 11 0 26 7 35 15 8 9 18 14 20
13 3 -2 14 5 26 14 11 10 20 16 20 13 0 -3 18 6 40 20 22 14 44 25 49 25 5 0
14 7 21 15 7 8 16 12 21 9 5 -3 9 -1 9 4 0 5 14 15 30 22 17 7 30 16 30 21 0
5 6 9 14 9 7 0 24 10 38 22 14 13 32 24 39 26 8 2 23 12 35 23 11 10 25 19 31
19 6 0 13 3 15 8 2 4 42 36 91 72 48 35 87 68 87 73 0 4 5 5 10 2 6 -3 13 1
16 9 3 9 10 16 15 16 6 0 28 18 49 39 22 22 40 36 40 33 1 -4 10 4 20 17 11
13 20 20 20 17 0 -3 9 3 20 14 11 11 20 25 20 31 0 5 4 8 9 5 4 -3 20 7 34 22
13 15 47 48 73 73 45 43 133 135 212 222 17 20 32 41 32 47 0 6 5 8 10 5 6 -3
10 -3 10 2 0 7 16 28 70 91 11 13 20 28 20 33 0 5 5 9 10 9 6 0 10 5 10 11 0
6 7 17 15 26 24 24 95 131 95 143 0 6 4 9 9 5 5 -3 12 4 16 15 3 11 11 20 16
20 6 0 8 4 5 9 -3 5 3 20 14 34 11 14 20 28 20 31 0 4 9 16 20 28 10 12 17 25
14 30 -3 4 0 8 5 8 6 0 11 6 11 13 0 7 8 22 18 33 9 11 18 26 20 34 2 8 13 31
25 50 12 19 21 38 19 43 -1 4 3 7 8 7 5 0 10 3 9 8 -2 15 14 52 23 52 5 0 6 5
3 10 -3 6 -1 10 6 10 7 0 10 3 6 6 -3 3 3 23 14 42 10 20 19 40 19 43 0 4 8
24 17 45 9 22 18 48 20 59 2 10 9 23 16 27 6 4 9 8 4 8 -4 0 -1 13 8 30 9 16
13 30 9 30 -4 0 -1 7 6 15 6 8 9 19 5 25 -3 5 -1 10 6 10 7 0 10 3 6 6 -3 3
-1 18 5 33 5 14 12 35 14 46 10 42 13 50 14 50 1 0 3 7 5 15 2 8 7 26 10 40 3
14 8 37 10 53 2 15 7 32 10 37 4 6 8 31 11 57 3 26 9 53 16 60 7 9 7 13 -1 13
-8 0 -9 6 -3 18 5 9 7 23 5 30 -3 6 -1 12 4 12 4 0 7 15 7 32 -1 18 4 39 10
47 9 12 8 13 -3 6 -11 -6 -12 -5 -5 6 12 19 13 50 19 297 3 164 1 211 -8 205
-9 -5 -9 -3 -1 8 6 8 10 23 7 34 -2 11 -5 47 -7 80 -2 33 -5 60 -6 60 -1 0 -4
9 -5 20 -10 80 -15 114 -21 145 -3 19 -7 47 -7 63 -1 15 -6 27 -10 27 -5 0 -6
4 -3 9 4 5 0 12 -6 14 -10 4 -10 6 -1 6 9 1 10 8 3 25 -5 13 -6 27 -3 30 4 3
1 6 -6 6 -8 0 -11 8 -8 20 3 11 1 23 -4 26 -5 3 -7 10 -4 15 4 5 2 9 -3 9 -5
0 -9 6 -10 13 -3 36 -9 68 -15 74 -4 3 -7 17 -7 30 0 13 -5 23 -11 23 -5 0 -8
4 -5 8 3 5 -1 20 -9 35 -7 14 -11 28 -8 31 3 3 0 12 -7 21 -7 8 -9 15 -5 15 4
0 2 6 -4 14 -7 8 -14 23 -16 35 -4 19 -18 55 -53 131 -8 19 -16 37 -17 40 -1
3 -8 19 -15 35 -7 17 -13 33 -12 38 1 4 -2 7 -7 7 -8 0 -24 37 -22 53 1 4 -4
7 -10 7 -5 0 -7 5 -4 10 3 6 1 10 -5 10 -6 0 -9 4 -6 9 3 5 -1 14 -9 21 -8 7
-15 19 -15 26 0 8 -4 14 -10 14 -5 0 -10 9 -10 20 0 11 -4 20 -10 20 -5 0 -10
7 -10 15 0 8 -5 15 -11 15 -5 0 -7 5 -4 10 3 6 3 10 -2 10 -4 0 -17 18 -27 40
-11 22 -23 40 -28 40 -4 0 -8 5 -8 11 0 12 -80 133 -92 137 -4 2 -8 8 -8 13 0
10 -10 24 -42 60 -10 10 -18 22 -18 27 0 4 -14 21 -30 39 -17 18 -30 36 -30
40 0 5 -9 15 -19 23 -11 7 -18 17 -15 22 3 4 -2 8 -10 8 -9 0 -16 6 -16 14 0
8 -4 16 -9 18 -5 2 -24 22 -44 45 -19 23 -37 39 -41 36 -3 -4 -6 0 -6 9 0 8
-22 35 -49 60 -27 26 -47 49 -44 52 4 3 -1 6 -10 6 -10 0 -17 7 -17 16 0 8 -4
12 -10 9 -5 -3 -10 1 -10 9 0 9 -4 16 -8 16 -5 0 -27 17 -49 38 -103 96 -144
132 -149 132 -4 0 -14 8 -23 18 -9 10 -36 33 -61 52 -62 48 -62 48 -89 70 -13
11 -27 20 -30 20 -3 0 -19 11 -34 25 -15 14 -27 23 -27 21 0 -6 -28 16 -55 42
-8 6 -16 12 -19 12 -9 0 -150 94 -158 105 -5 7 -8 7 -8 0 0 -7 -3 -7 -8 0 -4
6 -24 19 -44 30 -21 11 -38 23 -38 28 0 4 -4 6 -9 3 -5 -3 -14 1 -21 9 -7 8
-16 15 -21 15 -4 0 -35 16 -68 35 -32 19 -66 35 -74 35 -8 0 -17 7 -21 15 -3
8 -14 15 -24 15 -11 0 -31 9 -46 21 -14 11 -26 18 -26 15 0 -4 -22 5 -50 19
-27 14 -73 34 -102 46 -29 11 -76 31 -106 45 -29 13 -57 24 -62 24 -6 0 -18 4
-28 9 -22 12 -52 23 -77 28 -10 2 -22 7 -25 11 -3 4 -16 9 -30 11 -14 1 -28 8
-32 15 -4 6 -8 8 -8 3 0 -4 -16 -1 -35 7 -19 8 -35 12 -35 9 0 -3 -7 0 -15 7
-8 6 -19 9 -25 5 -5 -3 -10 -1 -10 6 0 7 -10 9 -25 7 -13 -3 -26 -1 -27 4 -2
4 -15 11 -30 13 -15 3 -39 10 -53 15 -14 5 -25 7 -25 4 0 -4 -6 -1 -13 5 -8 6
-17 8 -20 5 -3 -3 -12 -2 -19 2 -7 5 -17 9 -23 10 -5 1 -23 5 -40 9 -16 4 -40
8 -52 9 -13 0 -23 4 -23 8 0 4 -9 5 -20 3 -11 -2 -20 1 -20 7 0 6 -2 9 -5 6
-3 -3 -27 -1 -53 4 -74 15 -95 18 -122 21 -14 1 -31 6 -39 11 -11 7 -12 6 -6
-5 8 -12 6 -12 -8 0 -9 7 -23 11 -31 8 -8 -3 -17 -3 -21 1 -3 3 -27 8 -53 9
-26 1 -78 6 -117 9 -38 4 -89 7 -112 8 -24 0 -43 3 -43 6 0 3 -36 5 -80 5 -44
0 -80 2 -80 5 0 3 -41 5 -90 5 -50 0 -90 4 -90 8 0 5 -5 5 -12 1 -17 -11 -58
-11 -58 -1 0 4 -9 3 -20 -3 -11 -6 -20 -7 -20 -3 0 4 -350 8 -778 8 -523 -1
-779 3 -784 10 -5 6 -8 6 -8 0 0 -11 -102 -11 -120 0 -6 4 -9 13 -6 21 3 8 0
14 -7 14 -7 0 -8 3 -2 8 6 4 10 79 10 190 0 101 3 186 8 189 4 2 5 8 3 12 -11
17 -14 61 -5 61 6 0 7 6 2 13 -10 16 -13 37 -4 37 4 0 7 9 7 20 0 11 -3 20 -6
20 -3 0 -6 9 -6 20 0 11 5 20 11 20 5 0 3 5 -5 10 -13 9 -13 10 0 10 9 0 11 3
5 8 -11 8 -17 44 -6 38 3 -2 6 20 7 49 0 32 -4 51 -10 48 -5 -4 -6 -1 -1 8 13
19 14 49 2 49 -6 0 -6 5 0 13 6 6 10 70 9 145 -1 79 3 134 9 136 6 3 6 5 -1 5
-6 1 -9 19 -7 46 2 25 0 45 -5 45 -5 0 -9 7 -9 15 0 8 3 12 7 10 4 -3 7 11 6
30 0 19 -5 35 -9 35 -5 0 -5 6 0 13 12 18 11 80 -1 96 -8 10 -8 15 2 18 6 3 9
10 5 16 -10 17 -11 47 -1 47 5 0 5 8 0 18 -5 9 -8 35 -7 57 1 22 -2 48 -7 57
-5 10 -3 18 5 21 6 3 7 6 2 6 -6 1 -10 22 -9 49 1 26 -2 54 -7 63 -5 10 -4 20
3 27 7 7 8 12 3 12 -9 0 -13 35 -18 152 -1 27 -4 48 -7 48 -4 0 -6 10 -7 23
-1 21 -6 68 -18 152 -4 22 -7 54 -8 70 -1 17 -5 32 -9 35 -4 3 -9 26 -12 50
-2 25 -5 47 -6 50 -1 3 -2 9 -1 14 1 4 -4 14 -10 22 -9 11 -8 14 2 14 11 0 11
2 -1 10 -8 5 -11 10 -6 10 5 0 4 6 -2 13 -6 6 -11 15 -11 20 -1 4 -1 8 -2 10
0 1 -2 13 -4 27 -5 34 -15 82 -22 100 -8 21 -14 43 -15 58 -1 6 -4 12 -7 12
-4 0 -8 12 -9 27 -1 15 -5 29 -10 32 -6 5 -9 14 -16 46 -10 44 -42 135 -48
135 -4 0 -8 11 -8 24 0 14 -4 28 -10 31 -5 3 -10 12 -10 19 0 8 -8 31 -17 52
-9 22 -17 41 -18 44 -1 3 -8 19 -15 35 -7 17 -13 33 -12 38 1 4 -3 7 -8 7 -6
0 -10 8 -10 18 0 10 -7 27 -15 38 -8 12 -11 24 -8 28 3 3 1 6 -5 6 -7 0 -11 3
-11 8 3 12 -25 72 -33 72 -4 0 -8 8 -8 18 0 9 -9 28 -20 42 -11 14 -20 32 -20
41 0 9 -7 22 -15 29 -8 7 -12 16 -9 21 3 5 2 9 -3 9 -4 0 -19 21 -33 48 -13
26 -27 49 -30 52 -10 9 -31 45 -36 63 -4 9 -11 17 -17 17 -6 0 -7 3 -4 6 4 4
-7 24 -23 44 -17 21 -30 41 -30 44 0 4 -8 16 -18 27 -11 10 -25 32 -33 47 -8
15 -21 34 -29 42 -8 8 -21 27 -29 42 -8 15 -18 25 -23 22 -4 -3 -8 1 -8 8 0 7
-15 29 -33 49 -45 51 -67 78 -67 84 0 3 -16 21 -36 40 -20 19 -33 35 -31 35 3
0 -12 17 -34 38 -21 22 -39 44 -39 50 0 7 -5 12 -11 12 -6 0 -48 38 -94 85
-46 47 -85 85 -87 85 -2 0 -48 43 -103 95 -54 52 -102 95 -105 95 -4 0 -18 10
-32 23 -54 48 -79 67 -88 67 -6 0 -10 5 -10 10 0 6 -7 10 -15 10 -8 0 -15 8
-15 17 0 9 -3 13 -6 10 -4 -4 -24 7 -44 23 -21 17 -42 30 -47 30 -5 0 -15 9
-23 20 -8 11 -22 20 -31 20 -9 0 -24 9 -34 20 -10 11 -24 20 -32 20 -7 0 -13
4 -13 8 0 5 -16 14 -35 22 -19 8 -35 17 -35 20 0 8 -52 34 -62 32 -5 -1 -8 2
-8 8 0 5 -6 10 -14 10 -8 0 -22 7 -30 16 -9 8 -20 12 -26 9 -5 -3 -10 -1 -10
4 0 6 -7 11 -15 11 -8 0 -15 4 -15 9 0 5 -13 12 -30 16 -16 4 -30 11 -30 16 0
6 -4 8 -9 4 -5 -3 -16 2 -25 11 -9 8 -20 12 -26 9 -5 -3 -10 -1 -10 4 0 6 -3
10 -7 9 -5 0 -26 7 -48 17 -22 10 -46 20 -54 21 -7 1 -18 7 -24 13 -6 6 -19
11 -29 11 -10 0 -18 4 -18 10 0 5 -6 7 -14 4 -8 -3 -17 0 -21 5 -3 6 -11 9
-16 6 -5 -4 -9 -1 -9 6 0 7 -3 9 -7 6 -3 -4 -12 -2 -20 4 -7 6 -13 9 -13 5 0
-4 -12 0 -27 7 -16 8 -36 13 -45 12 -10 -2 -18 1 -18 6 0 5 -9 9 -19 9 -11 0
-23 5 -26 10 -3 6 -19 10 -36 10 -16 0 -29 4 -29 8 0 4 -14 9 -31 10 -17 1
-39 7 -49 12 -10 5 -32 11 -49 12 -17 1 -31 5 -31 8 0 4 -6 7 -12 7 -7 0 -29
4 -48 8 -59 12 -84 16 -107 18 -13 0 -23 4 -23 7 0 4 -17 8 -37 9 -50 2 -71 6
-79 14 -4 3 -15 2 -25 -3 -11 -6 -19 -6 -21 0 -2 6 -27 11 -56 11 -31 1 -52 6
-52 13 0 7 -3 7 -8 1 -6 -9 -28 -11 -42 -5 -3 1 -37 4 -76 5 -40 1 -77 6 -83
9 -6 4 -11 1 -11 -6 0 -8 -3 -9 -8 -3 -9 13 -102 16 -102 3 0 -5 -5 -6 -12 -2
-16 10 -56 12 -88 5z"/>
</g>
</svg>
